# xmcd
#
# Track frame offsets:
# 150
# 15605
# 28047
# 40530
# 54687
# 75475
# 86117
# 96880
# 111332
# 129680
# 148927
# 167742
# 183225
# 205860
# 217277
# 226767
# 235487
# 247210
# 258605
# 269980
# 289102
# 300242
# 314080
#
# Disc length: 4362 seconds
#
# Revision: 1
# Processed by: cddbd v1.4PL0 Copyright (c) Steve Scherf et al.
# Submitted via: CedeCatalogueitor 2.5 http://usuarios.lycos.es/kakasboy
#
DISCID=5f110817
DTITLE=Chile - Su Musica De Siempre
DYEAR=1988
DGENRE=Chilena
TTITLE0=Noche Callada
TTITLE1=La Novia
TTITLE2=El Rock del Mundial
TTITLE3=Al Pasar Esa Edad
TTITLE4=Gracias A La Vida
TTITLE5=Te Perdi
TTITLE6=Te Prometo Cambiar
TTITLE7=Los Momentos
TTITLE8=Un Cafe Para Platon
TTITLE9=Te Vas Quedando Sola
TTITLE10=Mantira
TTITLE11=De Tu Ausencia
TTITLE12=Tonadas De Manuel Rodriguez
TTITLE13=Si Vas Para Chile
TTITLE14=La Consentida
TTITLE15=Que Bonita Va
TTITLE16=El Corralero
TTITLE17=Romance De Barco Y Junco
TTITLE18=El Curanto
TTITLE19=Volver A Los 17
TTITLE20=El Yerbatero
TTITLE21=La Torcacita
TTITLE22=La Tejedora
EXTD=
EXTT0=
EXTT1=
EXTT2=
EXTT3=
EXTT4=
EXTT5=
EXTT6=
EXTT7=
EXTT8=
EXTT9=
EXTT10=
EXTT11=
EXTT12=
EXTT13=
EXTT14=
EXTT15=
EXTT16=
EXTT17=
EXTT18=
EXTT19=
EXTT20=
EXTT21=
EXTT22=
PLAYORDER=
